<?xml version="1.0" standalone="no"?>
<!DOCTYPE svg PUBLIC "-//W3C//DTD SVG 20010904//EN"
 "http://www.w3.org/TR/2001/REC-SVG-20010904/DTD/svg10.dtd">
<svg version="1.0" xmlns="http://www.w3.org/2000/svg"
 width="325.000000pt" height="95.000000pt" viewBox="0 0 325.000000 95.000000"
 preserveAspectRatio="xMidYMid meet">

<g transform="translate(0.000000,95.000000) scale(0.100000,-0.100000)"
fill="#000000" stroke="none">
<path d="M2760 893 c-25 -10 -64 -43 -77 -66 -16 -28 -16 -92 -2 -120 28 -54
76 -69 129 -42 44 23 60 53 60 112 0 44 -5 58 -27 82 -30 31 -58 43 -83 34z"/>
<path d="M2391 855 c-88 -101 29 -266 132 -185 59 46 57 143 -4 194 -45 38
-89 35 -128 -9z"/>
<path d="M2130 682 c-51 -51 -32 -140 40 -189 42 -29 67 -29 112 2 20 14 40
25 43 25 11 0 -7 -74 -32 -135 -62 -149 -72 -179 -79 -221 -12 -84 17 -91 183
-43 155 44 272 44 440 0 67 -18 133 -31 145 -29 22 3 23 8 23 79 0 69 -4 83
-44 164 -35 71 -61 105 -135 180 -121 122 -135 127 -276 90 -60 -15 -114 -24
-129 -20 -14 3 -62 31 -106 61 -45 31 -97 57 -117 60 -32 6 -41 2 -68 -24z
m595 -288 c10 -8 31 -14 47 -14 31 0 36 -11 13 -30 -10 -8 -15 -30 -15 -64 0
-29 -5 -57 -11 -63 -8 -8 -8 -17 0 -32 14 -25 34 -19 81 24 55 51 78 60 101
39 23 -21 25 -44 2 -44 -23 0 -53 -29 -53 -52 0 -23 -28 -24 -107 -3 -75 20
-264 20 -329 0 -57 -17 -59 -15 -68 63 -3 32 -15 86 -26 120 -11 35 -20 87
-20 115 0 29 -5 69 -11 90 -6 22 -8 41 -6 44 3 2 23 -12 46 -32 l40 -36 -26
-55 -27 -54 24 -25 c28 -30 51 -32 75 -5 18 20 18 20 -5 18 -12 -2 -25 3 -27
9 -3 9 5 12 26 9 26 -3 32 1 37 20 3 13 3 35 0 49 -5 19 -3 23 9 19 19 -8 45
-56 45 -83 0 -42 80 -84 107 -58 17 17 28 148 15 174 -9 15 -7 25 6 44 17 24
17 22 27 -75 9 -77 15 -101 30 -112z m-144 3 c-8 -8 -14 -8 -23 1 -9 9 -8 12
5 12 9 0 17 6 18 13 0 9 2 8 6 -1 3 -8 0 -19 -6 -25z"/>
<path d="M2966 680 c-50 -44 -63 -90 -39 -137 10 -21 33 -46 51 -56 38 -23 73
-13 115 31 56 58 58 123 5 167 -42 35 -88 33 -132 -5z"/>
<path d="M111 599 c-42 -41 -56 -97 -37 -143 25 -59 67 -71 114 -31 l29 24 23
-24 c33 -35 57 -31 101 15 41 43 48 67 38 119 -9 41 -16 49 -55 57 -41 8 -71
-19 -93 -84 -15 -45 -20 -50 -31 -37 -7 8 -28 15 -47 15 -31 0 -33 -2 -23 -21
18 -33 5 -46 -15 -15 -17 25 -17 31 -4 55 8 14 31 34 52 44 42 21 46 32 18 47
-29 15 -37 13 -70 -21z m224 -59 c4 -12 -3 -36 -17 -61 l-23 -41 -8 36 c-14
55 32 117 48 66z"/>
<path d="M430 611 c-13 -25 -13 -201 0 -201 5 0 12 16 16 35 6 34 8 35 50 35
55 0 57 17 4 37 -50 20 -47 35 9 47 45 10 49 24 10 42 -51 24 -78 25 -89 5z"/>
<path d="M589 614 c-15 -18 -26 -181 -14 -212 6 -16 7 -16 16 1 14 23 28 22
80 -11 73 -46 81 -47 74 -9 -4 18 -2 45 4 60 13 34 41 36 41 3 0 -14 4 -27 9
-30 29 -18 44 154 16 190 -15 18 -16 18 -44 -14 -15 -18 -37 -58 -47 -89 -10
-30 -25 -58 -32 -61 -8 -2 -26 7 -40 21 l-26 27 32 33 c36 37 40 57 15 80 -29
25 -67 31 -84 11z m41 -44 c0 -5 -4 -10 -10 -10 -5 0 -10 5 -10 10 0 6 5 10
10 10 6 0 10 -4 10 -10z"/>
<path d="M977 590 l-35 -41 -22 30 c-25 37 -55 40 -64 9 -3 -13 -6 -56 -6 -96
0 -88 20 -96 34 -14 11 58 21 65 37 26 9 -26 10 -26 29 -9 20 18 20 17 20 -33
0 -97 33 -49 52 75 14 96 3 109 -45 53z"/>
<path d="M1073 623 c-13 -9 -36 -194 -25 -204 13 -13 82 -28 87 -19 3 4 -6 19
-20 31 -33 32 -31 45 10 59 42 14 44 25 8 42 -35 17 -36 40 -3 48 30 7 41 40
13 40 -10 0 -27 3 -38 5 -11 3 -25 2 -32 -2z"/>
<path d="M1676 594 l-39 -41 -33 36 c-18 20 -36 33 -39 29 -11 -11 -24 -87
-25 -141 0 -57 19 -61 32 -6 16 64 18 66 35 36 14 -28 15 -28 34 -11 19 17 19
16 19 -37 0 -47 2 -51 15 -39 20 20 47 132 43 178 l-3 37 -39 -41z"/>
<path d="M1296 598 c-46 -70 -74 -176 -49 -185 6 -2 19 10 28 26 20 39 32 39
40 0 6 -28 9 -30 23 -16 22 23 27 115 9 160 -18 43 -31 46 -51 15z"/>
<path d="M1396 596 c-3 -13 -9 -62 -12 -110 -8 -97 -8 -97 67 -76 45 12 69 47
69 96 0 29 -8 44 -39 75 -44 45 -76 50 -85 15z m82 -69 c18 -36 7 -69 -21 -65
-17 2 -23 11 -25 36 -6 66 20 82 46 29z"/>
<path d="M1770 610 c-13 -9 -12 -13 7 -28 20 -15 22 -23 17 -69 -6 -46 -9 -52
-35 -57 -39 -7 -37 -24 6 -42 62 -25 98 -14 74 24 -16 26 -3 105 21 127 37 34
20 55 -43 55 -18 0 -39 -5 -47 -10z"/>
<path d="M1999 575 c-13 -51 -26 -59 -31 -17 -2 19 -9 27 -23 27 -24 0 -54
-76 -55 -137 0 -46 17 -50 33 -8 14 37 24 38 39 5 27 -60 68 2 68 104 0 74
-16 87 -31 26z"/>
</g>
</svg>
