<?xml version="1.0" standalone="no"?>
<!DOCTYPE svg PUBLIC "-//W3C//DTD SVG 20010904//EN"
 "http://www.w3.org/TR/2001/REC-SVG-20010904/DTD/svg10.dtd">
<svg version="1.0" xmlns="http://www.w3.org/2000/svg"
 width="231.000000pt" height="140.000000pt" viewBox="0 0 231.000000 140.000000"
 preserveAspectRatio="xMidYMid meet">

<g transform="translate(0.000000,140.000000) scale(0.100000,-0.100000)"
fill="#000000" stroke="none">
<path d="M1092 1388 c-12 -12 -17 -94 -6 -122 8 -22 92 -22 101 -1 3 9 2 19
-2 23 -4 4 -10 1 -12 -5 -6 -17 -63 -17 -63 0 0 7 18 23 40 37 32 20 40 30 38
50 -3 21 -9 25 -43 28 -23 2 -46 -3 -53 -10z m78 -23 c0 -8 -13 -21 -30 -30
l-30 -16 0 31 c0 27 3 30 30 30 20 0 30 -5 30 -15z"/>
<path d="M955 1370 c-14 -15 -21 -17 -32 -8 -11 8 -19 6 -39 -13 -19 -17 -27
-20 -33 -11 -4 7 -15 10 -24 6 -18 -7 -23 -24 -7 -24 15 0 39 -93 28 -107 -12
-14 8 -18 37 -7 14 6 14 9 2 23 -25 28 -30 71 -11 92 9 11 20 19 24 19 11 0
31 -86 24 -104 -4 -11 0 -16 14 -16 24 0 40 19 24 29 -6 3 -13 22 -17 41 -5
29 -2 39 14 54 20 18 21 18 32 -10 6 -16 11 -44 12 -61 1 -34 11 -40 36 -24
12 8 12 11 -1 25 -9 8 -19 32 -23 53 -7 38 -21 63 -35 63 -4 0 -15 -9 -25 -20z"/>
<path d="M1250 1362 c0 -11 69 -26 78 -18 8 9 1 13 -40 20 -22 4 -38 3 -38 -2z"/>
<path d="M1400 1346 c0 -8 11 -13 26 -13 26 0 52 -18 42 -29 -4 -3 -28 -11
-54 -18 -33 -8 -49 -18 -55 -34 -8 -20 -4 -25 24 -37 18 -7 46 -17 62 -21 24
-6 27 -4 22 9 -3 9 0 35 8 58 21 59 19 68 -20 85 -43 18 -55 18 -55 0z m50
-88 c0 -27 -17 -39 -43 -32 -28 6 -36 29 -14 37 24 10 57 7 57 -5z"/>
<path d="M1666 1307 c2 -7 -2 -21 -9 -31 -13 -17 -15 -17 -45 -2 -17 9 -35 16
-39 16 -10 0 -73 -103 -73 -119 0 -6 18 -11 41 -11 34 0 40 -3 35 -17 -4 -9
-1 -20 6 -25 20 -12 27 -10 25 10 0 11 20 53 47 95 26 42 44 81 41 87 -9 15
-35 12 -29 -3z m-39 -74 c7 -21 -38 -63 -68 -63 -36 0 -36 9 -3 61 24 38 27
40 47 26 11 -7 22 -18 24 -24z"/>
<path d="M685 1270 c-32 -21 -39 -40 -16 -48 8 -3 11 0 7 6 -5 8 33 42 49 42
12 0 4 -37 -15 -65 -23 -35 -24 -45 -7 -69 13 -17 16 -17 65 10 50 28 65 44
40 44 -7 0 -26 23 -41 50 -16 28 -34 50 -40 50 -7 0 -25 -9 -42 -20z m85 -87
c0 -15 -37 -36 -50 -28 -5 3 -3 20 7 40 15 31 18 33 29 17 8 -9 14 -22 14 -29z"/>
<path d="M578 1185 c-6 -14 -17 -24 -24 -21 -12 5 -34 -12 -34 -27 0 -4 5 -5
11 -1 11 6 73 -60 75 -81 1 -5 2 -14 3 -19 1 -10 41 23 41 34 0 4 -9 10 -19
13 -27 7 -51 48 -44 75 4 17 10 21 24 17 21 -7 25 5 7 23 -18 18 -27 15 -40
-13z"/>
<path d="M1730 1179 c0 -23 -71 -88 -89 -81 -15 6 -15 4 0 -18 14 -21 38 -28
32 -9 -1 3 11 18 26 33 22 21 34 26 55 20 14 -3 26 -9 26 -13 0 -12 -65 -71
-78 -71 -15 0 -15 -13 0 -28 16 -16 28 -15 28 1 0 8 11 24 24 36 19 18 31 22
56 16 l32 -7 -38 -39 c-21 -21 -45 -39 -53 -39 -11 0 -10 -4 4 -20 21 -23 37
-26 33 -7 -2 7 17 32 41 55 37 35 42 44 31 57 -7 8 -21 15 -31 15 -13 0 -19 7
-19 24 0 19 -7 26 -31 31 -20 5 -29 12 -25 20 3 8 -2 19 -10 25 -11 10 -14 10
-14 -1z"/>
<path d="M410 1135 c-11 -13 -9 -20 12 -43 14 -15 24 -32 21 -39 -2 -7 3 -10
14 -7 23 5 87 -52 79 -72 -3 -8 -2 -14 3 -14 8 0 57 49 50 51 -2 0 -14 2 -27
3 -31 4 -82 54 -75 74 5 12 2 14 -12 8 -25 -9 -59 22 -44 41 7 8 8 13 1 13 -5
0 -15 -7 -22 -15z"/>
<path d="M377 971 c-9 -16 -17 -36 -17 -44 0 -14 89 -77 109 -77 10 0 51 65
51 81 0 13 -90 69 -110 69 -9 0 -23 -13 -33 -29z m80 -16 l43 -26 -15 -29 -15
-30 -43 26 c-23 15 -44 28 -46 30 -5 5 20 54 27 54 3 0 25 -11 49 -25z"/>
<path d="M1952 979 c2 -6 8 -10 13 -10 5 0 11 4 13 10 2 6 -4 11 -13 11 -9 0
-15 -5 -13 -11z"/>
<path d="M1905 968 c6 -16 -83 -68 -105 -60 -12 4 -12 2 1 -18 16 -24 49 -44
35 -21 -4 7 13 23 44 43 49 30 61 56 32 66 -7 2 -10 -2 -7 -10z"/>
<path d="M913 931 c-63 -39 -81 -126 -43 -201 49 -96 175 -92 216 6 51 122
-71 259 -173 195z"/>
<path d="M1291 933 c-47 -25 -72 -62 -78 -117 -18 -160 172 -217 233 -69 50
118 -52 240 -155 186z"/>
<path d="M1957 868 c-7 -20 -95 -50 -100 -35 -2 7 -8 9 -12 5 -5 -5 -3 -20 4
-34 10 -23 14 -24 24 -12 7 8 24 19 39 26 23 9 31 8 53 -10 25 -20 26 -22 9
-32 -11 -5 -37 -15 -60 -21 -38 -10 -41 -12 -32 -35 8 -21 11 -23 18 -9 5 9
31 24 57 34 69 26 73 32 36 65 -23 21 -28 30 -17 34 7 3 11 12 8 21 -7 18 -20
20 -27 3z"/>
<path d="M313 853 c-3 -10 -12 -33 -19 -52 -8 -18 -14 -37 -14 -41 0 -10 98
-50 122 -50 17 0 20 6 16 40 -2 22 -3 40 -2 40 20 0 64 -26 64 -38 0 -19 -14
-44 -24 -43 -18 3 -19 -1 -3 -10 22 -13 22 -13 41 33 19 44 17 46 -84 86 -41
17 -74 35 -72 41 4 18 -18 12 -25 -6z m67 -53 c17 -17 29 -70 16 -70 -2 0 -25
9 -50 20 -44 18 -45 20 -34 45 14 30 41 32 68 5z"/>
<path d="M613 726 c-61 -28 -81 -112 -43 -187 26 -50 72 -79 128 -79 35 0 49
6 74 30 16 17 31 30 34 30 9 0 3 -79 -7 -86 -8 -4 -7 -9 2 -15 12 -7 11 -13
-4 -36 -61 -95 -117 -243 -117 -307 0 -17 7 -42 16 -55 20 -28 40 -25 197 25
214 68 311 67 542 -6 71 -22 138 -40 149 -38 77 11 41 200 -71 372 -59 92
-137 172 -200 208 -37 21 -53 36 -53 50 0 17 -4 19 -22 13 -13 -4 -55 -10 -94
-14 -39 -4 -91 -17 -115 -29 -25 -12 -58 -22 -72 -22 -31 0 -117 40 -136 64
-8 9 -20 16 -27 16 -8 0 -14 4 -14 9 0 18 -64 59 -100 65 -21 4 -48 0 -67 -8z
m624 -191 c-5 -28 -7 -72 -3 -98 6 -40 13 -52 39 -68 18 -10 49 -19 70 -19 34
0 37 -2 23 -15 -8 -8 -21 -15 -29 -15 -16 0 -13 -34 6 -57 7 -10 4 -13 -9 -13
-17 0 -17 -1 -2 -17 16 -15 16 -18 0 -45 -9 -15 -19 -28 -23 -28 -4 0 -5 -9
-2 -20 3 -11 13 -20 22 -20 9 0 22 -5 29 -12 9 -9 12 -9 12 1 0 15 25 42 33
35 3 -3 8 4 12 15 3 11 15 23 26 26 11 4 18 9 15 12 -8 8 20 33 37 33 28 0 60
-35 53 -58 -4 -13 -12 -19 -22 -15 -10 4 -12 0 -8 -12 6 -15 4 -16 -14 -6 -21
11 -27 6 -23 -21 0 -5 -4 -8 -9 -8 -7 0 -7 -7 0 -21 16 -29 5 -35 -43 -21
-179 52 -339 60 -459 24 -37 -11 -70 -17 -73 -12 -3 5 -7 47 -8 94 -2 61 -8
90 -19 103 -22 25 -36 83 -43 182 -3 49 -12 92 -20 104 -17 25 -20 47 -5 47 6
0 37 -27 70 -60 33 -33 53 -60 46 -60 -14 0 -29 -24 -31 -47 0 -6 -9 -21 -20
-33 -18 -20 -18 -23 -4 -33 9 -7 21 -22 28 -34 12 -23 41 -32 41 -12 0 5 5 7
10 4 15 -9 40 14 40 37 0 10 5 16 10 13 6 -3 10 0 11 7 0 7 2 27 4 44 3 20 -1
36 -10 44 -21 18 -18 29 6 23 35 -9 68 -69 62 -113 -5 -36 -4 -38 26 -45 17
-4 31 -11 31 -16 0 -17 56 -9 78 11 23 21 31 83 13 95 -6 3 -8 14 -6 25 2 11
0 20 -5 20 -10 0 -1 40 13 58 7 8 5 12 -7 12 -9 0 -16 5 -16 10 0 6 4 10 8 10
5 0 15 12 22 26 13 23 15 23 21 7 4 -10 2 -41 -4 -68z m-297 -142 c0 -14 2
-15 9 -4 6 10 10 10 16 1 10 -16 -8 -32 -28 -24 -18 7 -24 44 -7 44 6 0 10 -8
10 -17z m183 11 c10 -10 -12 -44 -28 -44 -23 0 -29 22 -10 37 21 15 29 16 38
7z"/>
<path d="M1595 726 c-61 -27 -95 -85 -95 -158 0 -32 7 -47 34 -74 29 -29 41
-34 81 -34 43 0 52 4 90 43 66 66 72 136 17 197 -32 36 -83 47 -127 26z"/>
</g>
</svg>
